<svg width="1245" height="451" viewBox="0 0 1245 451" fill="none" xmlns="http://www.w3.org/2000/svg">
<path fill-rule="evenodd" clip-rule="evenodd" d="M423.735 110.007C410.113 104.014 397.763 95.3138 387.41 84.2937C377.057 73.2737 368.703 60.127 363.254 45.6269C357.623 31.1268 354.717 15.6601 354.717 6.79435e-05H254.822H237.75L182.353 209.574L149.842 352.641C148.571 358.248 143.304 361.728 137.855 360.375C132.588 359.021 129.318 353.415 130.59 347.615L144.575 286.521C126.049 267.961 104.617 253.074 81.0056 242.634C60.7493 233.612 39.243 228.097 17.3856 226.186C39.411 224.271 61.0835 218.716 81.4945 209.618C107.258 198.135 130.83 181.591 150.564 160.377C170.298 139.356 186.012 114.249 196.793 86.8058C207.573 59.3627 213.055 29.7787 213.055 6.79435e-05H112.557C112.557 15.7652 109.634 31.3358 103.969 45.9331C98.305 60.5305 90.0824 73.7655 79.6672 84.8595C69.252 95.9535 56.8268 104.907 43.1226 110.745C29.4184 116.779 14.8006 119.893 0 119.893V225.428V226.941V331.761C14.7118 331.761 29.2419 334.855 42.8639 340.848C56.486 346.841 68.8366 355.541 79.1893 366.562C89.542 377.582 97.8969 390.728 103.346 405.228C108.794 419.728 111.882 435.195 111.882 450.855H118.602H229.031L308.584 149.834L320.935 103.627C322.388 98.0205 327.836 94.7338 333.104 96.4738C338.371 98.0205 341.458 103.82 339.824 109.427L324.567 166.654C342.548 183.861 363.072 198.168 385.412 208.028C406.062 217.225 428.011 222.778 450.307 224.583C428.222 226.405 406.481 231.961 386.024 241.047C360.608 252.53 337.356 269.074 317.888 290.289V290.483C298.421 311.503 282.919 336.611 272.284 364.054C261.649 391.497 256.242 421.081 256.242 450.86H355.381C355.381 435.094 358.265 419.524 363.853 404.927C369.441 390.329 377.552 377.094 387.827 366C398.101 354.906 410.359 345.953 423.878 340.114C437.397 334.081 451.817 330.967 466.417 330.967V225.234L466.418 119.094C451.706 119.094 437.176 116.001 423.554 110.007H423.735Z" fill="url(#paint0_linear_9_21)"/>
<path d="M565.615 102.082V93.9083C565.615 89.2629 566.241 85.2876 567.491 81.9823C568.742 78.6769 570.439 75.9969 572.583 73.9423C574.817 71.8876 577.407 70.3689 580.355 69.3863C583.393 68.4036 586.653 67.9123 590.137 67.9123C593.264 67.9123 595.944 68.3143 598.177 69.1183C600.5 69.8329 602.376 70.5923 603.805 71.3963V88.2803C602.555 86.4043 600.947 84.9303 598.981 83.8583C597.016 82.6969 594.604 82.1163 591.745 82.1163C588.887 82.1163 586.43 82.9649 584.375 84.6623C582.321 86.3596 581.293 89.4416 581.293 93.9083V102.082H601.527V115.884H581.293V169.082H565.615V115.884H555.565V102.082H565.615ZM645.706 100.876C647.046 100.876 648.431 101.1 649.86 101.546C651.29 101.904 652.317 102.306 652.942 102.752V119.1C651.87 117.85 650.307 116.778 648.252 115.884C646.287 114.991 643.964 114.544 641.284 114.544C632.798 114.544 628.778 120.306 629.224 131.83V169.082H613.546V102.082H628.286V115.75C628.644 113.785 629.314 111.909 630.296 110.122C631.368 108.246 632.619 106.638 634.048 105.298C635.567 103.958 637.309 102.886 639.274 102.082C641.24 101.278 643.384 100.876 645.706 100.876ZM694.725 170.556C689.455 170.556 684.72 169.842 680.521 168.412C676.323 166.894 672.705 164.66 669.667 161.712C666.63 158.764 664.307 155.102 662.699 150.724C661.091 146.347 660.287 141.21 660.287 135.314C660.287 129.508 661.136 124.46 662.833 120.172C664.531 115.795 666.898 112.177 669.935 109.318C672.973 106.37 676.635 104.182 680.923 102.752C685.211 101.323 689.991 100.608 695.261 100.608C700.443 100.608 705.133 101.368 709.331 102.886C713.619 104.405 717.237 106.638 720.185 109.586C723.223 112.534 725.545 116.197 727.153 120.574C728.761 124.952 729.565 130.044 729.565 135.85C729.565 141.657 728.717 146.749 727.019 151.126C725.322 155.414 722.955 158.988 719.917 161.846C716.88 164.705 713.217 166.894 708.929 168.412C704.641 169.842 699.907 170.556 694.725 170.556ZM676.233 135.716C676.233 143.131 677.886 148.536 681.191 151.93C684.497 155.236 689.097 156.888 694.993 156.888C700.979 156.888 705.579 155.191 708.795 151.796C712.011 148.312 713.619 142.997 713.619 135.85V135.448C713.619 128.034 711.922 122.674 708.527 119.368C705.222 115.974 700.621 114.276 694.725 114.276C688.74 114.366 684.139 116.152 680.923 119.636C677.797 123.031 676.233 128.257 676.233 135.314V135.716ZM790.377 128.48C790.377 123.656 789.35 120.172 787.295 118.028C785.241 115.795 781.891 114.634 777.245 114.544H776.843C765.409 114.544 759.691 120.306 759.691 131.83V169.082H744.013V101.948H758.753V115.616C760.183 111.507 762.952 108.023 767.061 105.164C771.26 102.216 776.575 100.742 783.007 100.742C790.243 100.832 795.871 102.842 799.891 106.772C804.001 110.614 806.055 116.465 806.055 124.326V169.082H790.377V128.48ZM845.137 79.3023V102.082H869.123V115.884H845.137V144.962C845.137 149.429 845.852 152.511 847.281 154.208C848.8 155.816 851.435 156.62 855.187 156.62C858.046 156.62 860.771 156.218 863.361 155.414C866.041 154.61 868.364 153.583 870.329 152.332V165.866C869.615 166.492 868.587 167.072 867.247 167.608C865.907 168.144 864.433 168.636 862.825 169.082C861.217 169.44 859.52 169.752 857.733 170.02C855.947 170.288 854.205 170.422 852.507 170.422C844.914 170.422 839.152 168.859 835.221 165.732C831.38 162.516 829.459 157.112 829.459 149.518V115.884H817.265V102.082H829.459V90.5583L845.137 79.3023ZM939.113 162.382C938.309 163.365 937.148 164.348 935.629 165.33C934.11 166.224 932.279 167.072 930.135 167.876C927.991 168.68 925.579 169.306 922.899 169.752C920.308 170.199 917.494 170.422 914.457 170.422C903.29 170.512 894.625 167.608 888.461 161.712C882.297 155.727 879.215 146.928 879.215 135.314C879.215 129.776 880.019 124.862 881.627 120.574C883.324 116.197 885.692 112.534 888.729 109.586C891.766 106.638 895.34 104.405 899.449 102.886C903.648 101.368 908.293 100.608 913.385 100.608C923.122 100.698 930.716 103.601 936.165 109.318C941.704 115.036 944.473 123.165 944.473 133.706V140.138H894.759C896.01 151.305 902.754 156.888 914.993 156.888C921.157 156.888 926.249 155.861 930.269 153.806C934.378 151.752 937.326 149.25 939.113 146.302V162.382ZM912.983 114.276C907.891 114.276 903.826 115.527 900.789 118.028C897.752 120.53 895.831 124.192 895.027 129.016H928.795C928.616 124.46 927.142 120.887 924.373 118.296C921.604 115.616 917.807 114.276 912.983 114.276ZM1005.25 128.48C1005.25 123.656 1004.22 120.172 1002.17 118.028C1000.11 115.795 996.762 114.634 992.116 114.544H991.714C980.28 114.544 974.562 120.306 974.562 131.83V169.082H958.884V101.948H973.624V115.616C975.054 111.507 977.823 108.023 981.932 105.164C986.131 102.216 991.446 100.742 997.878 100.742C1005.11 100.832 1010.74 102.842 1014.76 106.772C1018.87 110.614 1020.93 116.465 1020.93 124.326V169.082H1005.25V128.48ZM1101.55 68.5823V169.082H1086.94V155.682C1086.32 157.558 1085.38 159.39 1084.13 161.176C1082.88 162.874 1081.27 164.437 1079.3 165.866C1077.43 167.296 1075.15 168.412 1072.47 169.216C1069.88 170.11 1066.84 170.556 1063.36 170.556C1059.07 170.556 1055.14 169.931 1051.57 168.68C1048.08 167.34 1045.04 165.33 1042.45 162.65C1039.95 159.97 1037.99 156.531 1036.56 152.332C1035.13 148.134 1034.41 143.086 1034.41 137.19C1034.41 130.58 1035.13 124.996 1036.56 120.44C1037.99 115.795 1040 112.043 1042.59 109.184C1045.27 106.236 1048.48 104.092 1052.24 102.752C1055.99 101.412 1060.14 100.742 1064.7 100.742C1070.06 100.742 1074.48 101.904 1077.96 104.226C1081.54 106.46 1084.22 109.14 1086 112.266V68.5823H1101.55ZM1068.18 114.544C1061.84 114.544 1057.24 116.242 1054.38 119.636C1051.52 122.942 1050.09 128.57 1050.09 136.52C1050.09 140.183 1050.49 143.31 1051.3 145.9C1052.19 148.402 1053.4 150.456 1054.92 152.064C1056.52 153.672 1058.4 154.834 1060.54 155.548C1062.78 156.263 1065.23 156.62 1067.91 156.62C1073.63 156.62 1077.96 155.236 1080.91 152.466C1083.86 149.697 1085.56 145.811 1086 140.808V130.892C1085.56 125.622 1083.73 121.602 1080.51 118.832C1077.38 115.974 1073.27 114.544 1068.18 114.544Z" fill="white"/>
<path d="M614.403 281.956C612.921 283.787 610.263 285.574 606.427 287.317C602.592 289.06 598.016 289.932 592.699 289.932C587.469 289.932 582.718 289.235 578.447 287.84C574.176 286.358 570.515 284.179 567.464 281.302C564.413 278.426 562.059 274.852 560.403 270.581C558.747 266.31 557.919 261.298 557.919 255.545C557.919 249.966 558.747 245.085 560.403 240.901C562.147 236.629 564.544 233.099 567.595 230.31C570.645 227.433 574.306 225.298 578.578 223.903C582.849 222.421 587.599 221.68 592.829 221.68C597.275 221.768 601.328 222.378 604.989 223.511C608.65 224.644 611.57 226.039 613.749 227.695V246.784C611.483 243.298 608.606 240.508 605.12 238.416C601.72 236.237 597.623 235.104 592.829 235.017C586.553 235.017 581.759 236.673 578.447 239.985C575.134 243.298 573.478 248.266 573.478 254.891V256.852C573.478 263.651 575.178 268.663 578.578 271.888C582.064 275.026 586.902 276.595 593.091 276.595C598.582 276.595 603.071 275.593 606.558 273.588C610.132 271.583 612.747 269.143 614.403 266.266V281.956ZM655.875 289.932C650.733 289.932 646.113 289.235 642.016 287.84C637.919 286.358 634.389 284.179 631.425 281.302C628.461 278.426 626.195 274.852 624.626 270.581C623.057 266.31 622.273 261.298 622.273 255.545C622.273 249.879 623.101 244.954 624.757 240.77C626.413 236.499 628.723 232.968 631.687 230.179C634.65 227.303 638.224 225.167 642.408 223.772C646.592 222.378 651.256 221.68 656.398 221.68C661.454 221.68 666.03 222.421 670.127 223.903C674.311 225.385 677.841 227.564 680.718 230.441C683.682 233.317 685.948 236.891 687.517 241.162C689.086 245.433 689.87 250.402 689.87 256.068C689.87 261.733 689.042 266.702 687.386 270.973C685.73 275.157 683.42 278.644 680.456 281.433C677.493 284.222 673.919 286.358 669.735 287.84C665.551 289.235 660.931 289.932 655.875 289.932ZM637.832 255.937C637.832 263.172 639.444 268.445 642.67 271.758C645.895 274.983 650.384 276.595 656.137 276.595C661.977 276.595 666.466 274.939 669.604 271.627C672.742 268.227 674.311 263.041 674.311 256.068V255.675C674.311 248.441 672.655 243.211 669.343 239.985C666.117 236.673 661.628 235.017 655.875 235.017C650.035 235.104 645.546 236.847 642.408 240.247C639.357 243.559 637.832 248.658 637.832 255.545V255.937ZM745.023 249.007C745.023 244.213 744.108 240.726 742.278 238.547C740.534 236.368 737.571 235.278 733.387 235.278C723.798 235.366 719.091 240.988 719.266 252.145V288.494H703.968V223.119H718.35V236.455C719.484 232.445 721.75 229.046 725.149 226.257C728.636 223.38 733.038 221.942 738.355 221.942C744.021 221.942 748.641 223.162 752.215 225.603C755.788 227.956 758.186 231.574 759.406 236.455C760.626 232.358 762.936 228.915 766.336 226.126C769.822 223.337 774.224 221.942 779.541 221.942C786.602 221.942 792.006 223.86 795.754 227.695C799.503 231.443 801.377 237.152 801.377 244.823V288.494H786.079V249.007C786.079 244.213 785.207 240.726 783.464 238.547C781.721 236.368 778.713 235.278 774.442 235.278C769.822 235.278 766.336 236.586 763.982 239.201C761.716 241.816 760.495 245.608 760.321 250.576V288.494H745.023V249.007ZM860.068 249.007C860.068 244.213 859.153 240.726 857.322 238.547C855.579 236.368 852.615 235.278 848.431 235.278C838.843 235.366 834.136 240.988 834.31 252.145V288.494H819.013V223.119H833.395V236.455C834.528 232.445 836.795 229.046 840.194 226.257C843.681 223.38 848.083 221.942 853.4 221.942C859.066 221.942 863.686 223.162 867.259 225.603C870.833 227.956 873.23 231.574 874.451 236.455C875.671 232.358 877.981 228.915 881.38 226.126C884.867 223.337 889.269 221.942 894.586 221.942C901.647 221.942 907.051 223.86 910.799 227.695C914.547 231.443 916.421 237.152 916.421 244.823V288.494H901.124V249.007C901.124 244.213 900.252 240.726 898.509 238.547C896.765 236.368 893.758 235.278 889.487 235.278C884.867 235.278 881.38 236.586 879.027 239.201C876.761 241.816 875.54 245.608 875.366 250.576V288.494H860.068V249.007ZM948.44 262.605C948.44 267.312 949.442 270.755 951.447 272.934C953.452 275.114 956.721 276.247 961.253 276.334C972.236 276.334 977.684 270.712 977.597 259.467V223.119H992.895V288.494H978.512V275.157C977.205 279.167 974.546 282.61 970.537 285.486C966.614 288.276 961.602 289.67 955.5 289.67H955.239C948.266 289.496 942.861 287.578 939.026 283.917C935.191 280.169 933.273 274.46 933.273 266.789V223.119H948.44V262.605ZM1056.67 248.876C1056.67 244.169 1055.67 240.77 1053.67 238.678C1051.66 236.499 1048.39 235.366 1043.86 235.278H1043.47C1032.31 235.278 1026.73 240.901 1026.73 252.145V288.494H1011.43V222.988H1025.82V236.324C1027.21 232.315 1029.91 228.915 1033.92 226.126C1038.02 223.249 1043.21 221.811 1049.48 221.811C1056.54 221.898 1062.04 223.86 1065.96 227.695C1069.97 231.443 1071.97 237.152 1071.97 244.823V288.494H1056.67V248.876ZM1089.19 197.753C1089.19 195.225 1090.01 193.177 1091.67 191.608C1093.33 190.039 1095.55 189.254 1098.34 189.254C1101.04 189.254 1103.18 190.039 1104.75 191.608C1106.4 193.177 1107.23 195.225 1107.23 197.753C1107.23 200.368 1106.4 202.46 1104.75 204.029C1103.18 205.598 1101.04 206.383 1098.34 206.383C1095.55 206.383 1093.33 205.598 1091.67 204.029C1090.01 202.46 1089.19 200.368 1089.19 197.753ZM1090.62 223.119H1105.92V288.494H1090.62V223.119ZM1146.11 200.891V223.119H1169.52V236.586H1146.11V264.959C1146.11 269.317 1146.81 272.324 1148.21 273.98C1149.69 275.549 1152.26 276.334 1155.92 276.334C1158.71 276.334 1161.37 275.942 1163.9 275.157C1166.51 274.373 1168.78 273.37 1170.69 272.15V285.356C1170 285.966 1168.99 286.532 1167.69 287.055C1166.38 287.578 1164.94 288.058 1163.37 288.494C1161.8 288.842 1160.15 289.147 1158.4 289.409C1156.66 289.67 1154.96 289.801 1153.3 289.801C1145.9 289.801 1140.27 288.276 1136.44 285.225C1132.69 282.087 1130.82 276.813 1130.82 269.404V236.586H1118.92V223.119H1130.82V211.874L1146.11 200.891ZM1177.24 223.119H1194.37L1212.28 267.966L1226.92 223.119H1243.14L1216.99 295.423C1215.51 299.346 1214.02 302.527 1212.54 304.968C1211.06 307.496 1209.49 309.457 1207.83 310.852C1206.27 312.334 1204.57 313.336 1202.74 313.859C1200.9 314.382 1198.9 314.644 1196.72 314.644C1194.72 314.644 1192.71 314.382 1190.71 313.859C1188.7 313.336 1187.22 312.639 1186.26 311.767V297.515C1187.22 298.474 1188.4 299.259 1189.79 299.869C1191.19 300.479 1192.62 300.784 1194.11 300.784C1196.46 300.784 1198.51 299.869 1200.25 298.038C1202.08 296.295 1203.61 293.201 1204.83 288.755L1177.24 223.119Z" fill="white"/>
<path d="M560.518 377.928H554.454L555.713 371.979H561.605L563.149 364.657H557.2L558.458 358.65H564.236L566.181 348.354H573.102L571.1 358.65H577.965L579.91 348.354H586.831L584.829 358.65H591.064L589.806 364.657H583.742L582.198 371.979H588.261L587.003 377.928H581.168L579.166 388.396H572.302L574.304 377.928H567.439L565.437 388.396H558.516L560.518 377.928ZM575.333 371.979L576.878 364.657H570.013L568.469 371.979H575.333ZM615.749 377.299C615.749 376.155 615.253 375.278 614.261 374.667C613.308 374.019 612.107 373.466 610.658 373.008C609.208 372.513 607.626 371.998 605.91 371.464C604.194 370.93 602.611 370.186 601.162 369.233C599.713 368.28 598.492 367.021 597.501 365.458C596.547 363.856 596.071 361.778 596.071 359.223C596.071 357.43 596.338 355.828 596.872 354.417C597.444 352.968 598.34 351.748 599.56 350.756C600.819 349.727 602.439 348.945 604.422 348.411C606.406 347.877 608.827 347.61 611.687 347.61C614.242 347.61 616.569 347.801 618.666 348.182C620.802 348.526 622.556 348.983 623.929 349.555V358.765C622.48 357.773 620.744 356.953 618.723 356.305C616.702 355.619 614.605 355.275 612.431 355.275C611.058 355.275 609.933 355.371 609.056 355.562C608.179 355.752 607.473 356.019 606.939 356.362C606.444 356.706 606.081 357.106 605.853 357.564C605.662 358.021 605.567 358.517 605.567 359.051C605.567 360.157 606.062 361.015 607.054 361.625C608.083 362.235 609.342 362.788 610.829 363.284C612.355 363.742 613.994 364.237 615.749 364.771C617.541 365.267 619.181 366.011 620.668 367.002C622.194 367.956 623.452 369.214 624.444 370.778C625.473 372.341 625.988 374.4 625.988 376.955C625.988 380.807 624.691 383.801 622.098 385.936C619.505 388.072 615.31 389.14 609.514 389.14C606.92 389.14 604.422 388.892 602.02 388.396C599.617 387.9 597.692 387.233 596.242 386.394V376.841C596.738 377.299 597.386 377.794 598.187 378.328C598.988 378.862 599.922 379.358 600.99 379.816C602.058 380.273 603.259 380.674 604.594 381.017C605.929 381.322 607.397 381.475 608.999 381.475C611.401 381.475 613.117 381.093 614.147 380.33C615.215 379.568 615.749 378.557 615.749 377.299ZM634.148 348.411C637.084 348.297 639.735 348.22 642.099 348.182C644.502 348.106 646.733 348.068 648.792 348.068C651.881 348.068 654.417 348.259 656.4 348.64C658.421 349.021 660.023 349.631 661.205 350.47C662.387 351.309 663.207 352.396 663.665 353.731C664.161 355.028 664.408 356.61 664.408 358.479C664.408 363.36 661.968 366.354 657.086 367.46C660.099 367.65 662.311 368.528 663.722 370.091C665.133 371.617 665.839 373.79 665.839 376.612C665.839 378.748 665.553 380.597 664.98 382.161C664.447 383.686 663.474 384.945 662.063 385.936C660.69 386.928 658.822 387.652 656.457 388.11C654.093 388.568 651.118 388.797 647.534 388.797C645.894 388.797 643.968 388.758 641.756 388.682C639.544 388.606 637.008 388.491 634.148 388.339V348.411ZM643.529 380.845C644.406 380.922 645.264 380.979 646.103 381.017C646.942 381.017 647.82 381.017 648.735 381.017C650.26 381.017 651.5 380.941 652.453 380.788C653.445 380.597 654.207 380.311 654.741 379.93C655.313 379.511 655.695 378.996 655.885 378.386C656.114 377.775 656.228 377.013 656.228 376.097C656.228 375.182 656.114 374.419 655.885 373.809C655.656 373.199 655.275 372.722 654.741 372.379C654.207 371.998 653.483 371.731 652.567 371.578C651.69 371.426 650.584 371.35 649.25 371.35H643.529V380.845ZM649.707 364.886C651.805 364.886 653.235 364.504 653.997 363.742C654.798 362.979 655.199 361.835 655.199 360.309C655.199 359.432 655.103 358.708 654.913 358.136C654.76 357.564 654.455 357.106 653.997 356.763C653.54 356.42 652.911 356.172 652.11 356.019C651.347 355.867 650.336 355.79 649.078 355.79C648.163 355.79 647.267 355.809 646.389 355.848C645.55 355.848 644.597 355.886 643.529 355.962V364.886H649.707ZM673.81 348.354H701.725V356.477H683.192V364.371H699.495V371.922H683.192V380.273H701.725V388.396H673.81V348.354ZM710.177 388.396V348.526C712.694 348.411 715.02 348.316 717.156 348.24C719.291 348.125 721.503 348.068 723.791 348.068C726.918 348.068 729.55 348.354 731.685 348.926C733.821 349.46 735.518 350.28 736.776 351.386C738.073 352.453 738.988 353.826 739.522 355.504C740.094 357.144 740.38 359.07 740.38 361.282C740.38 362.922 740.266 364.409 740.037 365.744C739.846 367.04 739.484 368.203 738.95 369.233C738.454 370.263 737.787 371.159 736.948 371.922C736.109 372.684 735.06 373.333 733.802 373.867L743.583 388.396H733.23L724.535 374.896H719.558V388.396H710.177ZM723.734 367.517C725.069 367.517 726.175 367.403 727.052 367.174C727.967 366.945 728.692 366.602 729.225 366.144C729.759 365.686 730.141 365.095 730.369 364.371C730.598 363.646 730.713 362.788 730.713 361.797C730.713 360.843 730.598 360.023 730.369 359.337C730.179 358.65 729.817 358.098 729.283 357.678C728.749 357.22 728.024 356.896 727.109 356.706C726.194 356.477 725.031 356.362 723.62 356.362C722.781 356.362 722.037 356.381 721.389 356.42C720.778 356.458 720.092 356.515 719.329 356.591V367.517H723.734ZM756.617 356.42H745.062V348.354H777.496V356.42H765.941V388.396H756.617V356.42ZM784.306 348.354H812.221V356.477H793.688V364.371H809.99V371.922H793.688V380.273H812.221V388.396H784.306V348.354ZM843.369 379.987H828.725L825.979 388.396H816.655L830.727 348.354H841.824L855.839 388.396H846.229L843.369 379.987ZM831.299 372.265H840.795L836.047 358.021L831.299 372.265ZM861.676 348.354H875.004L883.813 369.633L892.565 348.354H905.322V388.396H896.169V365.858C896.169 364.676 896.188 363.436 896.226 362.14C896.303 360.843 896.379 359.566 896.455 358.307C895.921 359.642 895.387 360.958 894.854 362.254C894.358 363.551 893.9 364.714 893.481 365.744L887.417 380.388H879.695L873.574 365.858C873.154 364.79 872.678 363.589 872.144 362.254C871.61 360.92 871.057 359.585 870.485 358.25C870.561 359.547 870.618 360.843 870.657 362.14C870.733 363.398 870.771 364.619 870.771 365.801V388.396H861.676V348.354Z" fill="white"/>
<defs>
<linearGradient id="paint0_linear_9_21" x1="414.5" y1="52.5" x2="50" y2="412.5" gradientUnits="userSpaceOnUse">
<stop stop-color="#F78A8C"/>
<stop offset="1" stop-color="#FD82B6"/>
</linearGradient>
</defs>
</svg>
