<svg width="32" height="32" viewBox="0 0 451 451" fill="none" xmlns="http://www.w3.org/2000/svg">
<path fill-rule="evenodd" clip-rule="evenodd" d="M423.735 110.007C410.113 104.014 397.763 95.3138 387.41 84.2937C377.057 73.2737 368.703 60.127 363.254 45.6269C357.623 31.1268 354.717 15.6601 354.717 6.79435e-05H254.822H237.75L182.353 209.574L149.842 352.641C148.571 358.248 143.304 361.728 137.855 360.375C132.588 359.021 129.318 353.415 130.59 347.615L144.575 286.521C126.049 267.961 104.617 253.074 81.0056 242.634C60.7493 233.612 39.243 228.097 17.3856 226.186C39.411 224.271 61.0835 218.716 81.4945 209.618C107.258 198.135 130.83 181.591 150.564 160.377C170.298 139.356 186.012 114.249 196.793 86.8058C207.573 59.3627 213.055 29.7787 213.055 6.79435e-05H112.557C112.557 15.7652 109.634 31.3358 103.969 45.9331C98.305 60.5305 90.0824 73.7655 79.6672 84.8595C69.252 95.9535 56.8268 104.907 43.1226 110.745C29.4184 116.779 14.8006 119.893 0 119.893V225.428V226.941V331.761C14.7118 331.761 29.2419 334.855 42.8639 340.848C56.486 346.841 68.8366 355.541 79.1893 366.562C89.542 377.582 97.8969 390.728 103.346 405.228C108.794 419.728 111.882 435.195 111.882 450.855H118.602H229.031L308.584 149.834L320.935 103.627C322.388 98.0205 327.836 94.7338 333.104 96.4738C338.371 98.0205 341.458 103.82 339.824 109.427L324.567 166.654C342.548 183.861 363.072 198.168 385.412 208.028C406.062 217.225 428.011 222.778 450.307 224.583C428.222 226.405 406.481 231.961 386.024 241.047C360.608 252.53 337.356 269.074 317.888 290.289V290.483C298.421 311.503 282.919 336.611 272.284 364.054C261.649 391.497 256.242 421.081 256.242 450.86H355.381C355.381 435.094 358.265 419.524 363.853 404.927C369.441 390.329 377.552 377.094 387.827 366C398.101 354.906 410.359 345.953 423.878 340.114C437.397 334.081 451.817 330.967 466.417 330.967V225.234L466.418 119.094C451.706 119.094 437.176 116.001 423.554 110.007H423.735Z" fill="url(#paint0_linear_9_21)"/>
<defs>
<linearGradient id="paint0_linear_9_21" x1="414.5" y1="52.5" x2="50" y2="412.5" gradientUnits="userSpaceOnUse">
<stop stop-color="#F78A8C"/>
<stop offset="1" stop-color="#FD82B6"/>
</linearGradient>
</defs>
</svg>
