<svg width="835" height="229" viewBox="0 0 835 229" fill="none" xmlns="http://www.w3.org/2000/svg">
<rect width="835" height="162" rx="81" fill="url(#paint0_linear_8_4)"/>
<rect x="5.5" y="5.5" width="824" height="151" rx="75.5" stroke="#29393D" stroke-opacity="0.3" stroke-width="11"/>
<rect x="15" y="13" width="476" height="138" rx="69" fill="url(#paint1_linear_8_4)"/>
<path d="M109.104 84.976H79.008V109H68.008V47.4H110.512V57.52H79.008V74.856H109.104V84.976ZM142.11 64.208C142.99 64.208 143.9 64.3547 144.838 64.648C145.777 64.8827 146.452 65.1467 146.862 65.44V76.176C146.158 75.3547 145.132 74.6507 143.782 74.064C142.492 73.4773 140.966 73.184 139.206 73.184C133.633 73.184 130.993 76.968 131.286 84.536V109H120.99V65H130.67V73.976C130.905 72.6853 131.345 71.4533 131.99 70.28C132.694 69.048 133.516 67.992 134.454 67.112C135.452 66.232 136.596 65.528 137.886 65C139.177 64.472 140.585 64.208 142.11 64.208ZM174.302 109.968C170.84 109.968 167.731 109.499 164.974 108.56C162.216 107.563 159.84 106.096 157.846 104.16C155.851 102.224 154.326 99.8187 153.27 96.944C152.214 94.0693 151.686 90.696 151.686 86.824C151.686 83.0107 152.243 79.696 153.358 76.88C154.472 74.0053 156.027 71.6293 158.022 69.752C160.016 67.816 162.422 66.3787 165.238 65.44C168.054 64.5013 171.192 64.032 174.654 64.032C178.056 64.032 181.136 64.5307 183.894 65.528C186.71 66.5253 189.086 67.992 191.022 69.928C193.016 71.864 194.542 74.2693 195.598 77.144C196.654 80.0187 197.182 83.3627 197.182 87.176C197.182 90.9893 196.624 94.3333 195.51 97.208C194.395 100.024 192.84 102.371 190.846 104.248C188.851 106.125 186.446 107.563 183.63 108.56C180.814 109.499 177.704 109.968 174.302 109.968ZM162.158 87.088C162.158 91.9573 163.243 95.5067 165.414 97.736C167.584 99.9067 170.606 100.992 174.478 100.992C178.408 100.992 181.43 99.8773 183.542 97.648C185.654 95.36 186.71 91.8693 186.71 87.176V86.912C186.71 82.0427 185.595 78.5227 183.366 76.352C181.195 74.1227 178.174 73.008 174.302 73.008C170.371 73.0667 167.35 74.24 165.238 76.528C163.184 78.7573 162.158 82.1893 162.158 86.824V87.088ZM237.118 82.336C237.118 79.168 236.443 76.88 235.094 75.472C233.745 74.0053 231.545 73.2427 228.494 73.184H228.23C220.721 73.184 216.966 76.968 216.966 84.536V109H206.67V64.912H216.35V73.888C217.289 71.1893 219.107 68.9013 221.806 67.024C224.563 65.088 228.054 64.12 232.278 64.12C237.03 64.1787 240.726 65.4987 243.366 68.08C246.065 70.6027 247.414 74.4453 247.414 79.608V109H237.118V82.336ZM273.08 50.04V65H288.832V74.064H273.08V93.16C273.08 96.0933 273.549 98.1173 274.488 99.232C275.485 100.288 277.216 100.816 279.68 100.816C281.557 100.816 283.346 100.552 285.048 100.024C286.808 99.496 288.333 98.8213 289.624 98V106.888C289.154 107.299 288.48 107.68 287.6 108.032C286.72 108.384 285.752 108.707 284.696 109C283.64 109.235 282.525 109.44 281.352 109.616C280.178 109.792 279.034 109.88 277.92 109.88C272.933 109.88 269.149 108.853 266.568 106.8C264.045 104.688 262.784 101.139 262.784 96.152V74.064H254.776V65H262.784V57.432L273.08 50.04ZM334.795 104.6C334.267 105.245 333.504 105.891 332.507 106.536C331.51 107.123 330.307 107.68 328.899 108.208C327.491 108.736 325.907 109.147 324.147 109.44C322.446 109.733 320.598 109.88 318.603 109.88C311.27 109.939 305.579 108.032 301.531 104.16C297.483 100.229 295.459 94.4507 295.459 86.824C295.459 83.1867 295.987 79.96 297.043 77.144C298.158 74.2693 299.712 71.864 301.707 69.928C303.702 67.992 306.048 66.5253 308.747 65.528C311.504 64.5307 314.555 64.032 317.899 64.032C324.294 64.0907 329.28 65.9973 332.859 69.752C336.496 73.5067 338.315 78.8453 338.315 85.768V89.992H305.667C306.488 97.3253 310.918 100.992 318.955 100.992C323.003 100.992 326.347 100.317 328.987 98.968C331.686 97.6187 333.622 95.976 334.795 94.04V104.6ZM317.635 73.008C314.291 73.008 311.622 73.8293 309.627 75.472C307.632 77.1147 306.371 79.52 305.843 82.688H328.019C327.902 79.696 326.934 77.3493 325.115 75.648C323.296 73.888 320.803 73.008 317.635 73.008ZM378.227 82.336C378.227 79.168 377.553 76.88 376.203 75.472C374.854 74.0053 372.654 73.2427 369.603 73.184H369.339C361.83 73.184 358.075 76.968 358.075 84.536V109H347.779V64.912H357.459V73.888C358.398 71.1893 360.217 68.9013 362.915 67.024C365.673 65.088 369.163 64.12 373.387 64.12C378.139 64.1787 381.835 65.4987 384.475 68.08C387.174 70.6027 388.523 74.4453 388.523 79.608V109H378.227V82.336ZM441.469 43V109H431.877V100.2C431.466 101.432 430.85 102.635 430.029 103.808C429.208 104.923 428.152 105.949 426.861 106.888C425.629 107.827 424.133 108.56 422.373 109.088C420.672 109.675 418.677 109.968 416.389 109.968C413.573 109.968 410.992 109.557 408.645 108.736C406.357 107.856 404.362 106.536 402.661 104.776C401.018 103.016 399.728 100.757 398.789 98C397.85 95.2427 397.381 91.928 397.381 88.056C397.381 83.7147 397.85 80.048 398.789 77.056C399.728 74.0053 401.048 71.5413 402.749 69.664C404.509 67.728 406.621 66.32 409.085 65.44C411.549 64.56 414.277 64.12 417.269 64.12C420.789 64.12 423.693 64.8827 425.981 66.408C428.328 67.8747 430.088 69.6347 431.261 71.688V43H441.469ZM419.557 73.184C415.392 73.184 412.37 74.2987 410.493 76.528C408.616 78.6987 407.677 82.3947 407.677 87.616C407.677 90.0213 407.941 92.0747 408.469 93.776C409.056 95.4187 409.848 96.768 410.845 97.824C411.901 98.88 413.133 99.6427 414.541 100.112C416.008 100.581 417.621 100.816 419.381 100.816C423.136 100.816 425.981 99.9067 427.917 98.088C429.853 96.2693 430.968 93.7173 431.261 90.432V83.92C430.968 80.4587 429.765 77.8187 427.653 76C425.6 74.1227 422.901 73.184 419.557 73.184Z" fill="white"/>
<path d="M596.936 108L553.024 53V108H548.8V46.4H553.288L597.2 101.4V46.4H601.424V108H596.936ZM617.779 44.112C617.779 42.44 619.011 41.296 620.771 41.296C622.619 41.296 623.763 42.44 623.763 44.112C623.763 45.784 622.619 46.928 620.771 46.928C619.011 46.928 617.779 45.784 617.779 44.112ZM618.835 108V64H622.795V108H618.835ZM672.272 105.976V97.528C670.512 103.16 665.848 108.968 654.848 108.968C643.408 108.968 635.488 102.28 635.488 87.056C635.488 69.72 643.584 63.12 655.464 63.12C664.176 63.12 670.16 67.608 672.272 73.856L672.448 72.36V64H676.232V105.888C676.232 118.824 669.28 124.456 655.904 124.456C648.336 124.456 641.736 121.376 639.272 118.824V112.84C641.736 116.8 647.28 120.76 655.992 120.76C666.64 120.76 672.272 116.536 672.272 105.976ZM672.272 89.08V83.712C672.272 73.24 665.76 66.816 655.904 66.816C646.224 66.816 639.448 72.008 639.448 86.616C639.448 99.904 646.136 105.272 655.904 105.272C666.464 105.272 672.008 98.848 672.272 89.08ZM723.732 108V80.28C723.732 70.424 718.98 66.816 710.18 66.816C699.796 66.816 694.78 72.712 694.78 82.216V108H690.82V42H694.78V73.328C696.54 67.52 701.908 63.208 711.412 63.208H711.588C721.708 63.296 727.692 68.312 727.692 79.048V108H723.732ZM736.765 64H745.213V54.408L749.261 52.736V64H766.685V67.696H749.261V95.152C749.261 102.808 751.813 105.184 758.413 105.184C762.549 105.184 765.717 104.216 768.269 102.896V106.504C766.333 107.648 762.373 108.88 758.237 108.88C749.437 108.88 745.213 105.36 745.213 96.12V67.696H736.765V64Z" fill="white"/>
<path d="M18.569 184.75H20.504V200.531C21.364 197.865 23.729 195.07 28.975 195.07C34.608 195.07 38.478 198.338 38.478 205.777C38.478 214.248 34.479 217.473 28.717 217.473C24.374 217.473 21.45 215.28 20.418 212.184V217H18.569V184.75ZM28.459 215.667C33.232 215.667 36.5 213.13 36.5 205.992C36.5 199.499 33.275 196.876 28.459 196.876C23.557 196.876 20.848 199.714 20.504 204.1V208.529C20.934 213.001 23.987 215.667 28.459 215.667ZM51.1543 217.086L41.5653 195.5H43.8013L52.1863 214.549L59.3243 195.5H61.4313L52.2723 219.279C50.6383 223.536 48.9183 225.041 46.5963 225.041C45.4353 225.041 44.2743 224.654 43.7153 224.224V221.902C44.2743 222.547 45.3493 223.149 46.5103 223.149C48.0153 223.149 49.5203 222.203 51.1543 217.086ZM96.7652 193.479C95.0022 190.426 91.0462 188.319 86.6602 188.319C81.5002 188.405 78.4472 190.426 78.4472 193.909C78.4472 202.81 97.6252 198.037 97.6252 209.26C97.6252 214.162 93.6692 217.43 87.0902 217.43C81.6722 217.43 77.4582 215.323 75.8672 213.517V210.206C77.6302 213.087 81.6722 215.538 87.3052 215.538C91.9062 215.538 95.4752 213.56 95.4752 209.303C95.4752 200.273 76.3402 205.003 76.3402 193.995C76.3402 189.05 80.7692 186.427 86.6602 186.427C91.4762 186.427 95.2172 188.276 96.7652 189.91V193.479ZM103.897 184.75H105.832V200.531C106.692 197.865 109.057 195.07 114.303 195.07C119.936 195.07 123.806 198.338 123.806 205.777C123.806 214.248 119.807 217.473 114.045 217.473C109.702 217.473 106.778 215.28 105.746 212.184V217H103.897V184.75ZM113.787 215.667C118.56 215.667 121.828 213.13 121.828 205.992C121.828 199.499 118.603 196.876 113.787 196.876C108.885 196.876 106.176 199.714 105.832 204.1V208.529C106.262 213.001 109.315 215.667 113.787 215.667ZM138.03 195.07C143.835 195.07 147.318 198.854 147.318 205.218V206.809H129.731C129.903 212.872 133.171 215.667 138.116 215.667C142.244 215.667 144.867 214.076 146.028 212.141V214.807C144.953 216.14 142.33 217.43 138.116 217.43C131.709 217.43 127.753 213.689 127.753 206.164C127.753 198.854 132.225 195.07 138.03 195.07ZM138.03 196.833C133.3 196.833 130.118 199.628 129.774 205.089H145.383V204.96C145.383 199.628 142.373 196.833 138.03 196.833ZM160.343 196.876C156.516 196.876 154.71 199.757 154.753 204.401V217H152.818V195.5H154.71V200.058C155.355 197.263 157.247 195.156 160.687 195.113C161.719 195.113 162.923 195.457 163.353 195.844V198.123C162.665 197.349 161.633 196.919 160.343 196.919V196.876Z" fill="white"/>
<defs>
<linearGradient id="paint0_linear_8_4" x1="418" y1="-68" x2="418" y2="158" gradientUnits="userSpaceOnUse">
<stop stop-color="#1C2B2E"/>
<stop offset="1" stop-color="#3E5054"/>
</linearGradient>
<linearGradient id="paint1_linear_8_4" x1="15" y1="82" x2="491" y2="82" gradientUnits="userSpaceOnUse">
<stop stop-color="#E39C46"/>
<stop offset="1" stop-color="#F2802A"/>
</linearGradient>
</defs>
</svg>
